<svg id="Capa_1" enable-background="new 0 0 512 512" height="512" viewBox="0 0 512 512" width="512" xmlns="http://www.w3.org/2000/svg"><g><path d="m104.774 384.432-56.662 64.787v62.781h207.888l38.047-127.568z" fill="#fdae02"/><path d="m407.226 384.432h-101.468-49.758v127.568h207.888v-62.781z" fill="#e68f21"/><path d="m267.175 360.408h-66.784v60.337c0 30.712 24.897 55.609 55.609 55.609z" fill="#f2cdbe"/><path d="m256 360.408v115.945c30.712 0 55.609-24.897 55.609-55.609v-60.337h-55.609z" fill="#efbeaa"/><path d="m121.715 126.398v119.092c-14.385 7.676-24.179 22.827-24.179 40.271 0 25.196 20.426 45.622 45.622 45.622h1.765c24.166 35.496 64.897 58.81 111.077 58.81l6.896-264.552z" fill="#ffddce"/><path d="m390.285 245.49v-135.385l-134.284 15.536-.001 264.552c46.18 0 86.911-23.314 111.077-58.81h1.765c25.196 0 45.622-20.426 45.622-45.622 0-17.444-9.794-32.595-24.179-40.271z" fill="#f2cdbe"/><g><path d="m267.175 0h-65.152c-44.39 0-80.376 35.985-80.376 80.376v53.977h134.353z" fill="#36607d"/><path d="m256 0 .001 134.352h94.897c44.39 0 80.376-35.985 80.376-80.376v-53.976z" fill="#28485e"/><g><g><path d="m185.962 186.623h30v30h-30z" fill="#36607d"/></g><g><path d="m294.39 186.623h30v30h-30z" fill="#28485e"/></g></g></g><g><g><path d="m219.628 286.456h41.063v30h-41.063z" fill="#de9180"/></g></g><g><g><path d="m256 286.456h36.372v30h-36.372z" fill="#d27f6c"/></g></g></g></svg>